<svg width="100" height="100" viewBox="0 0 100 100" fill="none" xmlns="http://www.w3.org/2000/svg">
  <rect width="100" height="100" fill="#FFFFFF"/>
  <path d="M30 25C30 22.2386 32.2386 20 35 20H50C67.6731 20 82 34.3269 82 52C82 69.6731 67.6731 84 50 84H35C32.2386 84 30 81.7614 30 79V25Z" fill="#21A038"/>
  <path d="M50 35C42.268 35 36 41.268 36 49C36 56.732 42.268 63 50 63C57.732 63 64 56.732 64 49C64 41.268 57.732 35 50 35Z" fill="white"/>
  <path d="M18 49C18 41.268 24.268 35 32 35L32 63C24.268 63 18 56.732 18 49Z" fill="#21A038"/>
</svg> 