<?xml version="1.0" encoding="UTF-8"?>
<svg width="40px" height="40px" viewBox="0 0 40 40" version="1.1" xmlns="http://www.w3.org/2000/svg">
    <title>Military</title>
    <g id="Military" stroke="none" stroke-width="1" fill="none" fill-rule="evenodd">
        <polygon id="Star" stroke="#333333" stroke-width="2" points="20 25 13.4733 28.4565 14.7435 21.2282 9.4871 16.0435 16.7367 14.7718 20 8 23.2633 14.7718 30.5129 16.0435 25.2565 21.2282 26.5267 28.4565"></polygon>
        <path d="M10,33 L30,33 C30.5523,33 31,33.4477 31,34 L31,34 L9,34 L9,34 C9,33.4477 9.44772,33 10,33 Z" id="Rectangle" fill="#333333"></path>
        <path d="M16,31 L24,31 C24.5523,31 25,31.4477 25,32 L25,32 L15,32 L15,32 C15,31.4477 15.4477,31 16,31 Z" id="Rectangle-Copy" fill="#333333"></path>
        <path d="M33,10 L33,10 C33.5523,10 34,10.4477 34,11 L34,18 C34,18.5523 33.5523,19 33,19 L33,19 L33,19" id="Path" stroke="#333333" stroke-width="2" stroke-linecap="round"></path>
        <path d="M7,10 L7,10 C6.44772,10 6,10.4477 6,11 L6,18 C6,18.5523 6.44772,19 7,19 L7,19 L7,19" id="Path-Copy-2" stroke="#333333" stroke-width="2" stroke-linecap="round" transform="translate(6.500000, 14.500000) scale(-1, 1) translate(-6.500000, -14.500000) "></path>
    </g>
</svg> 