<?xml version="1.0" encoding="UTF-8"?>
<svg width="40px" height="40px" viewBox="0 0 40 40" version="1.1" xmlns="http://www.w3.org/2000/svg">
    <title>Maternal Capital</title>
    <g id="Maternal-Capital" stroke="none" stroke-width="1" fill="none" fill-rule="evenodd">
        <path d="M19,6 C21.3333,8.66667 23.6667,10 26,10 C26,16.6667 24,21.3333 20,24 L20,24" id="Path" stroke="#333333" stroke-width="2" stroke-linecap="round"></path>
        <path d="M14,6 C11.6667,8.66667 9.33333,10 7,10 C7,16.6667 9,21.3333 13,24 L13,24" id="Path-Copy" stroke="#333333" stroke-width="2" stroke-linecap="round" transform="translate(10.500000, 15.000000) scale(-1, 1) translate(-10.500000, -15.000000) "></path>
        <path d="M12,20 C12,16.4 14.6667,14 20,14 C25.3333,14 28,16.4 28,20 C28,25.2 21.3333,30 20,30 C18.6667,30 12,25.2 12,20 Z" id="Path" stroke="#333333" stroke-width="2"></path>
        <path d="M15,26 C15,26 19,21 25,21" id="Path-2" stroke="#333333" stroke-width="2" stroke-linecap="round"></path>
    </g>
</svg> 